<mxfile host="app.diagrams.net" agent="Mozilla/5.0 (Windows NT 10.0; Win64; x64) AppleWebKit/537.36 (KHTML, like Gecko) Chrome/135.0.0.0 Safari/537.36" version="26.2.12">
  <diagram name="PÃ¡gina-1" id="QOBKnGaHKdZLlrCTucjU">
    <mxGraphModel dx="1428" dy="777" grid="1" gridSize="10" guides="1" tooltips="1" connect="1" arrows="1" fold="1" page="1" pageScale="1" pageWidth="1169" pageHeight="827" math="0" shadow="0">
      <root>
        <mxCell id="0" />
        <mxCell id="1" parent="0" />
        <mxCell id="shTrKh5FGc3t_0rZLE-n-3" value="" style="edgeStyle=orthogonalEdgeStyle;rounded=0;orthogonalLoop=1;jettySize=auto;html=1;" edge="1" parent="1" source="shTrKh5FGc3t_0rZLE-n-1" target="shTrKh5FGc3t_0rZLE-n-2">
          <mxGeometry relative="1" as="geometry" />
        </mxCell>
        <mxCell id="shTrKh5FGc3t_0rZLE-n-1" value="Inicio" style="ellipse;whiteSpace=wrap;html=1;aspect=fixed;" vertex="1" parent="1">
          <mxGeometry x="530" y="60" width="80" height="80" as="geometry" />
        </mxCell>
        <mxCell id="shTrKh5FGc3t_0rZLE-n-5" value="" style="edgeStyle=orthogonalEdgeStyle;rounded=0;orthogonalLoop=1;jettySize=auto;html=1;" edge="1" parent="1" source="shTrKh5FGc3t_0rZLE-n-2" target="shTrKh5FGc3t_0rZLE-n-4">
          <mxGeometry relative="1" as="geometry" />
        </mxCell>
        <mxCell id="shTrKh5FGc3t_0rZLE-n-2" value="Ingrese el valor en dolares" style="whiteSpace=wrap;html=1;" vertex="1" parent="1">
          <mxGeometry x="510" y="170" width="120" height="60" as="geometry" />
        </mxCell>
        <mxCell id="shTrKh5FGc3t_0rZLE-n-8" value="" style="edgeStyle=orthogonalEdgeStyle;rounded=0;orthogonalLoop=1;jettySize=auto;html=1;" edge="1" parent="1" source="shTrKh5FGc3t_0rZLE-n-4" target="shTrKh5FGc3t_0rZLE-n-7">
          <mxGeometry relative="1" as="geometry" />
        </mxCell>
        <mxCell id="shTrKh5FGc3t_0rZLE-n-4" value="E" style="whiteSpace=wrap;html=1;" vertex="1" parent="1">
          <mxGeometry x="555" y="260" width="30" height="20" as="geometry" />
        </mxCell>
        <mxCell id="shTrKh5FGc3t_0rZLE-n-10" value="" style="edgeStyle=orthogonalEdgeStyle;rounded=0;orthogonalLoop=1;jettySize=auto;html=1;" edge="1" parent="1" source="shTrKh5FGc3t_0rZLE-n-7" target="shTrKh5FGc3t_0rZLE-n-9">
          <mxGeometry relative="1" as="geometry" />
        </mxCell>
        <mxCell id="shTrKh5FGc3t_0rZLE-n-7" value="R=E*1.13" style="whiteSpace=wrap;html=1;" vertex="1" parent="1">
          <mxGeometry x="535" y="310" width="70" height="30" as="geometry" />
        </mxCell>
        <mxCell id="shTrKh5FGc3t_0rZLE-n-12" value="" style="edgeStyle=orthogonalEdgeStyle;rounded=0;orthogonalLoop=1;jettySize=auto;html=1;" edge="1" parent="1" source="shTrKh5FGc3t_0rZLE-n-9" target="shTrKh5FGc3t_0rZLE-n-11">
          <mxGeometry relative="1" as="geometry" />
        </mxCell>
        <mxCell id="shTrKh5FGc3t_0rZLE-n-9" value="Su cambio a euros es R" style="whiteSpace=wrap;html=1;" vertex="1" parent="1">
          <mxGeometry x="510" y="380" width="120" height="60" as="geometry" />
        </mxCell>
        <mxCell id="shTrKh5FGc3t_0rZLE-n-11" value="Fin" style="ellipse;whiteSpace=wrap;html=1;" vertex="1" parent="1">
          <mxGeometry x="530" y="480" width="80" height="80" as="geometry" />
        </mxCell>
      </root>
    </mxGraphModel>
  </diagram>
</mxfile>
